<?xml version="1.0" standalone="no"?>
<!DOCTYPE svg PUBLIC "-//W3C//DTD SVG 20010904//EN"
 "http://www.w3.org/TR/2001/REC-SVG-20010904/DTD/svg10.dtd">
<svg version="1.0" xmlns="http://www.w3.org/2000/svg"
 width="512.000000pt" height="512.000000pt" viewBox="0 0 512.000000 512.000000"
 preserveAspectRatio="xMidYMid meet">
<metadata>
Created by potrace 1.11, written by Peter Selinger 2001-2013
</metadata>
<g transform="translate(0.000000,512.000000) scale(0.100000,-0.100000)"
fill="#000000" stroke="none">
<path d="M13 5113 c9 -2 23 -2 30 0 6 3 -1 5 -18 5 -17 0 -22 -2 -12 -5z"/>
<path d="M1235 5111 c70 -17 135 -66 172 -129 l28 -47 5 -830 5 -830 830 -5
830 -5 48 -28 c52 -31 98 -87 119 -145 10 -29 13 -155 13 -552 0 -506 0 -516
-22 -562 -11 -25 -40 -64 -62 -86 -77 -75 -37 -72 -948 -72 -447 0 -814 -1
-815 -2 -2 -2 -5 -374 -8 -828 l-5 -825 -22 -41 c-12 -23 -43 -60 -69 -83
l-47 -41 1917 0 1916 0 0 2560 0 2560 -1957 -1 c-1077 -1 -1944 -4 -1928 -8z"/>
</g>
</svg>
